<?xml version="1.0" encoding="UTF-8"?>
<svg id="Layer_1" data-name="Layer 1" xmlns="http://www.w3.org/2000/svg" viewBox="0 0 480 480">
  <defs>
    <style>
      .cls-1 {
        fill: #56a1d8;
      }

      .cls-2 {
        fill: #071f35;
      }
    </style>
  </defs>
  <g id="Layer_2" data-name="Layer 2">
    <g id="Surfaces">
      <g id="Photo_Surface" data-name="Photo Surface">
        <g id="Outline_no_shadow" data-name="Outline no shadow">
          <path class="cls-2" d="m126.71,52.29h227.28c34.46,0,62.32,28.66,62.32,64.1v224.74c0,35.44-27.86,64.1-62.32,64.1H126.71c-34.46,0-62.32-28.66-62.32-64.1V116.4c0-35.44,27.86-64.1,62.32-64.1Z"/>
        </g>
      </g>
    </g>
    <g id="Outlined_Mnemonics_Logos" data-name="Outlined Mnemonics Logos">
      <g id="Ps">
        <path class="cls-1" d="m143.57,299.81v-155.2c0-1.06.44-1.66,1.47-1.66,2.49,0,4.84,0,8.21-.15,3.52-.15,7.18-.15,11.14-.3,3.96-.15,8.21-.15,12.76-.3,4.55-.15,8.94-.15,13.34-.15,12.02,0,21.99,1.51,30.21,4.68,7.33,2.56,14.08,6.79,19.65,12.37,4.69,4.83,8.36,10.71,10.7,17.19,2.2,6.33,3.37,12.82,3.37,19.61,0,12.97-2.93,23.68-8.8,32.13-5.87,8.45-14.08,14.78-23.61,18.4-9.97,3.77-20.97,5.13-32.99,5.13-3.52,0-5.87,0-7.33-.15s-3.52-.15-6.31-.15v48.42c.15,1.06-.59,1.96-1.61,2.11h-28.45c-1.17,0-1.76-.6-1.76-1.96Zm31.97-127.75v50.68c2.05.15,3.96.3,5.72.3h7.77c5.72,0,11.44-.9,16.86-2.71,4.69-1.36,8.8-4.22,12.02-7.99,3.08-3.77,4.55-8.9,4.55-15.54.15-4.68-1.03-9.35-3.37-13.42-2.49-3.92-6.01-6.94-10.26-8.6-5.43-2.26-11.29-3.17-17.3-3.02-3.81,0-7.18,0-9.97.15-2.93-.15-4.99,0-6.01.15h0Z"/>
        <path class="cls-1" d="m345.92,213.53c-4.4-2.41-9.09-4.07-14.08-5.13-5.43-1.21-10.85-1.96-16.42-1.96-2.93-.15-6.01.3-8.8,1.06-1.91.45-3.52,1.51-4.55,3.02-.73,1.21-1.17,2.71-1.17,4.07s.59,2.71,1.47,3.92c1.32,1.66,3.08,3.02,4.99,4.07,3.37,1.81,6.89,3.47,10.41,4.98,7.92,2.71,15.54,6.49,22.58,11.01,4.84,3.17,8.8,7.39,11.58,12.52,2.35,4.83,3.52,10.11,3.37,15.54.15,7.09-1.91,14.18-5.72,20.06-4.11,6.03-9.82,10.71-16.42,13.42-7.18,3.17-15.98,4.83-26.54,4.83-6.74,0-13.34-.6-19.94-1.96-5.13-.9-10.26-2.56-14.96-4.83-1.03-.6-1.76-1.66-1.61-2.87v-26.24c0-.45.15-1.06.59-1.36.44-.3.88-.15,1.32.15,5.72,3.47,11.73,5.88,18.18,7.39,5.57,1.51,11.44,2.26,17.3,2.26s9.53-.75,12.17-2.11c2.35-1.06,3.96-3.62,3.96-6.33,0-2.11-1.17-4.07-3.52-6.03-2.35-1.96-7.18-4.22-14.37-7.09-7.48-2.71-14.37-6.33-20.82-10.86-4.55-3.32-8.36-7.69-11.14-12.82-2.35-4.83-3.52-10.11-3.37-15.38,0-6.49,1.76-12.67,4.99-18.25,3.67-6.03,9.09-10.86,15.4-13.88,6.89-3.62,15.54-5.28,25.95-5.28,6.01,0,12.17.45,18.18,1.36,4.4.6,8.65,1.81,12.61,3.47.59.15,1.17.75,1.47,1.36.15.6.29,1.21.29,1.81v24.59c0,.6-.29,1.21-.73,1.51-1.32.3-2.05.3-2.64,0Z"/>
      </g>
    </g>
  </g>
</svg>