<?xml version="1.0" encoding="UTF-8"?>
<svg id="svg3430" xmlns="http://www.w3.org/2000/svg" xmlns:xlink="http://www.w3.org/1999/xlink" viewBox="0 0 711.2 711.2">
  <defs>
    <style>
      .cls-1 {
        fill: #fff;
      }

      .cls-2 {
        clip-path: url(#clippath-2);
      }

      .cls-3 {
        clip-path: url(#clippath-1);
      }

      .cls-4 {
        fill: url(#radial-gradient);
      }

      .cls-5 {
        clip-path: url(#clippath);
      }

      .cls-6 {
        fill: none;
      }

      .cls-7 {
        fill: #777bb3;
      }
    </style>
    <clipPath id="clippath">
      <path class="cls-6" d="m10,349.34c0,100.4,154.73,181.8,345.6,181.8h0c190.87,0,345.6-81.4,345.6-181.8h0c0-100.4-154.73-181.8-345.6-181.8h0c-190.87,0-345.6,81.4-345.6,181.8"/>
    </clipPath>
    <radialGradient id="radial-gradient" cx="-601.67" cy="889.78" fx="-601.67" fy="889.78" r="1" gradientTransform="translate(273269.39 404032.23) scale(453.82 -453.82)" gradientUnits="userSpaceOnUse">
      <stop offset="0" stop-color="#aeb2d5"/>
      <stop offset=".3" stop-color="#aeb2d5"/>
      <stop offset=".75" stop-color="#484c89"/>
      <stop offset="1" stop-color="#484c89"/>
    </radialGradient>
    <clipPath id="clippath-1">
      <rect class="cls-6" x="-4.4" y="146.84" width="720" height="405"/>
    </clipPath>
    <clipPath id="clippath-2">
      <rect class="cls-6" x="-4.4" y="146.84" width="720" height="405"/>
    </clipPath>
  </defs>
  <g id="g3438">
    <g id="g3440">
      <g class="cls-5">
        <g id="g3442">
          <g id="g3448">
            <g id="g3450">
              <path id="path3462" class="cls-4" d="m10,349.34c0,100.4,154.73,181.8,345.6,181.8h0c190.87,0,345.6-81.4,345.6-181.8h0c0-100.4-154.73-181.8-345.6-181.8h0c-190.87,0-345.6,81.4-345.6,181.8"/>
            </g>
          </g>
        </g>
      </g>
    </g>
    <g id="g3464">
      <g class="cls-3">
        <g id="g3466">
          <g id="g3472">
            <path id="path3474" class="cls-7" d="m355.6,517.64c183.41,0,332.1-75.35,332.1-168.3s-148.69-168.3-332.1-168.3S23.5,256.39,23.5,349.34s148.69,168.3,332.1,168.3"/>
          </g>
        </g>
      </g>
    </g>
    <g id="g3476">
      <g class="cls-2">
        <g id="g3478">
          <g id="g3484">
            <path id="path3486" d="m197.77,370.21c15.08,0,26.34-2.78,33.46-8.26,7.05-5.43,11.92-14.83,14.47-27.94,2.38-12.26,1.47-20.82-2.69-25.43-4.26-4.72-13.47-7.11-27.37-7.11h-24.1l-13.36,68.75h19.59Zm-78.83,84.69c-1.12,0-2.18-.5-2.89-1.37-.71-.86-1-2-.79-3.1l35.41-182.19c.34-1.76,1.89-3.03,3.68-3.03h76.32c23.98,0,41.84,6.51,53.06,19.36,11.28,12.91,14.77,30.96,10.35,53.65-1.8,9.24-4.88,17.83-9.18,25.51-4.3,7.69-9.98,14.81-16.89,21.16-8.27,7.74-17.63,13.35-27.8,16.65-10,3.26-22.85,4.91-38.19,4.91h-30.9l-8.82,45.4c-.34,1.76-1.88,3.04-3.68,3.04h-39.69Z"/>
          </g>
          <g id="g3488">
            <path id="path3490" class="cls-1" d="m194.63,305.21h21.01c16.78,0,22.6,3.68,24.58,5.87,3.28,3.64,3.91,11.32,1.79,22.21-2.37,12.19-6.77,20.83-13.07,25.68-6.45,4.97-16.94,7.48-31.18,7.48h-15.04l11.9-61.25Zm36.04-43.75h-76.32c-3.59,0-6.68,2.54-7.36,6.07l-35.41,182.19c-.43,2.2.15,4.47,1.57,6.2,1.42,1.73,3.55,2.73,5.79,2.73h39.69c3.59,0,6.68-2.55,7.36-6.07l8.23-42.37h27.81c15.73,0,28.97-1.72,39.35-5.1,10.68-3.47,20.5-9.35,29.19-17.48,7.19-6.61,13.11-14.04,17.6-22.07,4.49-8.03,7.71-16.99,9.58-26.63,4.64-23.88.87-43-11.21-56.83-11.97-13.7-30.77-20.64-55.88-20.64m-57.04,112.5h24.14c16,0,27.92-3.01,35.75-9.04,7.83-6.03,13.12-16.09,15.86-30.2,2.63-13.54,1.43-23.09-3.59-28.66-5.03-5.57-15.07-8.35-30.15-8.35h-27.19l-14.82,76.25m57.04-105c22.96,0,39.71,6.02,50.23,18.08,10.53,12.05,13.7,28.87,9.5,50.47-1.73,8.9-4.65,17.03-8.77,24.4-4.12,7.37-9.5,14.12-16.15,20.23-7.93,7.42-16.73,12.7-26.42,15.85-9.69,3.16-22.03,4.73-37.03,4.73h-34l-9.41,48.44h-39.69l35.41-182.19h76.32"/>
          </g>
          <g id="g3492">
            <path id="path3494" d="m385.08,406.46c-1.12,0-2.18-.5-2.89-1.37-.71-.86-1-2-.79-3.1l15.66-80.61c1.49-7.67,1.12-13.17-1.03-15.49-1.32-1.42-5.28-3.8-17.01-3.8h-28.38l-19.69,101.34c-.34,1.76-1.89,3.03-3.68,3.03h-39.38c-1.12,0-2.18-.5-2.89-1.37-.71-.86-1-2-.79-3.1l35.41-182.19c.34-1.76,1.89-3.03,3.68-3.03h39.38c1.12,0,2.18.5,2.89,1.36.71.87,1,2,.79,3.1l-8.54,43.97h30.53c23.26,0,39.03,4.1,48.21,12.53,9.36,8.61,12.28,22.36,8.68,40.9l-16.48,84.78c-.34,1.76-1.88,3.03-3.68,3.03h-40Z"/>
          </g>
          <g id="g3496">
            <path id="path3498" class="cls-1" d="m362.68,213.02h-39.38c-3.59,0-6.68,2.55-7.36,6.07l-35.41,182.19c-.43,2.2.15,4.47,1.58,6.2s3.55,2.73,5.79,2.73h39.38c3.59,0,6.68-2.54,7.36-6.07l19.1-98.31h25.29c11.7,0,14.16,2.5,14.26,2.61.71.76,1.64,4.3.1,12.23l-15.66,80.61c-.43,2.2.15,4.47,1.58,6.2s3.55,2.73,5.79,2.73h40c3.59,0,6.68-2.54,7.36-6.07l16.47-84.78c3.87-19.9.56-34.83-9.83-44.38-9.91-9.1-26.51-13.52-50.75-13.52h-25.98l7.68-39.51c.43-2.2-.15-4.47-1.57-6.2-1.43-1.73-3.55-2.73-5.79-2.73m0,7.5l-9.41,48.44h35.08c22.07,0,37.3,3.85,45.67,11.55,8.38,7.7,10.89,20.18,7.54,37.42l-16.48,84.78h-40l15.66-80.61c1.78-9.17,1.13-15.43-1.97-18.76-3.1-3.33-9.68-5-19.76-5h-31.47l-20.28,104.38h-39.38l35.41-182.19h39.38"/>
          </g>
          <g id="g3500">
            <path id="path3502" d="m507.54,370.21c15.08,0,26.34-2.78,33.46-8.26,7.05-5.43,11.92-14.83,14.47-27.94,2.38-12.26,1.47-20.82-2.69-25.43-4.26-4.72-13.47-7.11-27.37-7.11h-24.1l-13.36,68.75h19.59Zm-78.83,84.69c-1.12,0-2.18-.5-2.89-1.37-.71-.86-1-2-.79-3.1l35.41-182.19c.34-1.76,1.89-3.03,3.68-3.03h76.32c23.99,0,41.84,6.51,53.06,19.36,11.28,12.91,14.76,30.96,10.35,53.65-1.8,9.24-4.88,17.83-9.18,25.51-4.3,7.69-9.98,14.81-16.89,21.16-8.27,7.74-17.63,13.35-27.8,16.65-10,3.26-22.85,4.91-38.19,4.91h-30.9l-8.82,45.4c-.34,1.76-1.89,3.04-3.68,3.04h-39.69Z"/>
          </g>
          <g id="g3504">
            <path id="path3506" class="cls-1" d="m504.4,305.21h21.01c16.78,0,22.6,3.68,24.58,5.87,3.29,3.64,3.91,11.32,1.79,22.21-2.37,12.19-6.77,20.83-13.07,25.68-6.45,4.97-16.94,7.48-31.18,7.48h-15.04l11.9-61.25Zm36.04-43.75h-76.32c-3.59,0-6.68,2.54-7.36,6.07l-35.41,182.19c-.43,2.2.15,4.47,1.57,6.2,1.42,1.73,3.55,2.73,5.79,2.73h39.69c3.59,0,6.68-2.55,7.36-6.07l8.23-42.37h27.81c15.73,0,28.97-1.72,39.35-5.1,10.68-3.47,20.5-9.35,29.2-17.48,7.19-6.61,13.11-14.04,17.6-22.07,4.49-8.03,7.71-16.99,9.58-26.63,4.64-23.88.87-43-11.21-56.83-11.97-13.7-30.77-20.64-55.88-20.64m-57.04,112.5h24.14c16,0,27.92-3.01,35.75-9.04,7.83-6.03,13.12-16.09,15.86-30.2,2.63-13.54,1.43-23.09-3.59-28.66-5.03-5.57-15.07-8.35-30.15-8.35h-27.19l-14.82,76.25m57.04-105c22.96,0,39.71,6.02,50.23,18.08,10.53,12.05,13.7,28.87,9.5,50.47-1.73,8.9-4.65,17.03-8.77,24.4-4.12,7.37-9.5,14.12-16.15,20.23-7.93,7.42-16.73,12.7-26.42,15.85-9.69,3.16-22.03,4.73-37.03,4.73h-34l-9.41,48.44h-39.69l35.41-182.19h76.32"/>
          </g>
        </g>
      </g>
    </g>
  </g>
</svg>