<svg width="423" height="150" viewBox="0 0 423 150" fill="none" xmlns="http://www.w3.org/2000/svg">
<path d="M46.5625 106V64.625C46.5625 57.6667 43.9792 54.1875 38.8125 54.1875C36.2292 54.1875 33.75 55.2292 31.375 57.3125C29.0417 59.3958 26.5625 62.2292 23.9375 65.8125V106H8.6875V42.5H21.875L22.25 51.875C23.5417 50.25 24.875 48.7708 26.25 47.4375C27.6667 46.1042 29.1875 44.9792 30.8125 44.0625C32.4375 43.1042 34.1875 42.375 36.0625 41.875C37.9375 41.375 40.0417 41.125 42.375 41.125C45.625 41.125 48.4583 41.6667 50.875 42.75C53.2917 43.7917 55.3125 45.2917 56.9375 47.25C58.5625 49.1667 59.7708 51.5 60.5625 54.25C61.3958 56.9583 61.8125 60 61.8125 63.375V106H46.5625ZM116.438 25.125C116.438 26.5 116.188 27.7917 115.688 29C115.188 30.2083 114.479 31.2708 113.562 32.1875C112.688 33.0625 111.646 33.7708 110.438 34.3125C109.229 34.8125 107.917 35.0625 106.5 35.0625C105.083 35.0625 103.75 34.8125 102.5 34.3125C101.292 33.7708 100.229 33.0625 99.3125 32.1875C98.4375 31.2708 97.75 30.2083 97.25 29C96.75 27.7917 96.5 26.5 96.5 25.125C96.5 23.75 96.75 22.4583 97.25 21.25C97.75 20.0417 98.4375 18.9792 99.3125 18.0625C100.229 17.1458 101.292 16.4375 102.5 15.9375C103.75 15.3958 105.083 15.125 106.5 15.125C107.917 15.125 109.229 15.3958 110.438 15.9375C111.646 16.4375 112.688 17.1458 113.562 18.0625C114.479 18.9792 115.188 20.0417 115.688 21.25C116.188 22.4583 116.438 23.75 116.438 25.125ZM99.5625 54.375H81.625V42.5H115.188V94.125H133.5V106H79.4375V94.125H99.5625V54.375ZM188.75 106L165.312 74.25V106H150.062V17.6875H165.312V69.375L187.5 42.5H206.562L180.812 71.4375L208.688 106H188.75ZM259.125 106L235.688 74.25V106H220.438V17.6875H235.688V69.375L257.875 42.5H276.938L251.188 71.4375L279.062 106H259.125ZM327.562 25.125C327.562 26.5 327.312 27.7917 326.812 29C326.312 30.2083 325.604 31.2708 324.688 32.1875C323.812 33.0625 322.771 33.7708 321.562 34.3125C320.354 34.8125 319.042 35.0625 317.625 35.0625C316.208 35.0625 314.875 34.8125 313.625 34.3125C312.417 33.7708 311.354 33.0625 310.438 32.1875C309.562 31.2708 308.875 30.2083 308.375 29C307.875 27.7917 307.625 26.5 307.625 25.125C307.625 23.75 307.875 22.4583 308.375 21.25C308.875 20.0417 309.562 18.9792 310.438 18.0625C311.354 17.1458 312.417 16.4375 313.625 15.9375C314.875 15.3958 316.208 15.125 317.625 15.125C319.042 15.125 320.354 15.3958 321.562 15.9375C322.771 16.4375 323.812 17.1458 324.688 18.0625C325.604 18.9792 326.312 20.0417 326.812 21.25C327.312 22.4583 327.562 23.75 327.562 25.125ZM310.688 54.375H292.75V42.5H326.312V94.125H344.625V106H290.562V94.125H310.688V54.375ZM386.688 82.9375C388.438 82.9375 390.062 83.2708 391.562 83.9375C393.062 84.5625 394.354 85.4375 395.438 86.5625C396.562 87.6458 397.438 88.9375 398.062 90.4375C398.688 91.9375 399 93.5417 399 95.25C399 96.9167 398.688 98.5 398.062 100C397.438 101.458 396.562 102.75 395.438 103.875C394.354 104.958 393.062 105.812 391.562 106.438C390.062 107.104 388.438 107.438 386.688 107.438C385.021 107.438 383.458 107.104 382 106.438C380.542 105.812 379.271 104.958 378.188 103.875C377.104 102.75 376.25 101.458 375.625 100C375 98.5 374.688 96.9167 374.688 95.25C374.688 93.5417 375 91.9375 375.625 90.4375C376.25 88.9375 377.104 87.6458 378.188 86.5625C379.271 85.4375 380.542 84.5625 382 83.9375C383.458 83.2708 385.021 82.9375 386.688 82.9375Z" fill="#362B2E"/>
<circle cx="106" cy="25" r="11" fill="#F37B83"/>
<circle cx="317" cy="25" r="11" fill="#F37B83"/>
</svg>
