<svg width="479" height="410" viewBox="0 0 479 410" fill="none" xmlns="http://www.w3.org/2000/svg">
<rect width="479" height="398" rx="25" fill="#362B2E"/>
<path d="M221.319 290V176.865C221.319 157.839 214.256 148.325 200.128 148.325C193.064 148.325 186.285 151.174 179.791 156.87C173.411 162.567 166.632 170.314 159.454 180.112V290H117.755V116.367H153.814L154.84 142.002C158.372 137.559 162.018 133.514 165.777 129.868C169.651 126.222 173.81 123.146 178.253 120.64C182.696 118.019 187.481 116.025 192.608 114.658C197.735 113.291 203.489 112.607 209.869 112.607C218.756 112.607 226.503 114.089 233.111 117.051C239.719 119.899 245.245 124.001 249.688 129.355C254.132 134.596 257.436 140.977 259.601 148.496C261.879 155.902 263.019 164.219 263.019 173.447V290H221.319Z" fill="#F9F0FF"/>
<path d="M381.622 226.938C386.407 226.938 390.851 227.85 394.952 229.673C399.054 231.382 402.586 233.774 405.548 236.851C408.624 239.813 411.017 243.345 412.726 247.446C414.435 251.548 415.289 255.934 415.289 260.605C415.289 265.163 414.435 269.492 412.726 273.594C411.017 277.581 408.624 281.113 405.548 284.189C402.586 287.152 399.054 289.487 394.952 291.196C390.851 293.019 386.407 293.931 381.622 293.931C377.065 293.931 372.792 293.019 368.805 291.196C364.817 289.487 361.342 287.152 358.38 284.189C355.418 281.113 353.082 277.581 351.373 273.594C349.664 269.492 348.81 265.163 348.81 260.605C348.81 255.934 349.664 251.548 351.373 247.446C353.082 243.345 355.418 239.813 358.38 236.851C361.342 233.774 364.817 231.382 368.805 229.673C372.792 227.85 377.065 226.938 381.622 226.938Z" fill="#F37B83"/>
</svg>
