<svg width="487" height="410" viewBox="0 0 487 410" fill="none" xmlns="http://www.w3.org/2000/svg">
<g filter="url(#filter0_d_32_5)">
<rect x="4" width="479" height="398" rx="25" fill="#F9F0FF"/>
<path d="M225.319 290V176.865C225.319 157.839 218.256 148.325 204.128 148.325C197.064 148.325 190.285 151.174 183.791 156.87C177.411 162.567 170.632 170.314 163.454 180.112V290H121.755V116.367H157.814L158.84 142.002C162.372 137.559 166.018 133.514 169.777 129.868C173.651 126.222 177.81 123.146 182.253 120.64C186.696 118.019 191.481 116.025 196.608 114.658C201.735 113.291 207.489 112.607 213.869 112.607C222.756 112.607 230.503 114.089 237.111 117.051C243.719 119.899 249.245 124.001 253.688 129.355C258.132 134.596 261.436 140.977 263.601 148.496C265.879 155.902 267.019 164.219 267.019 173.447V290H225.319Z" fill="#362B2E"/>
<path d="M385.622 226.938C390.407 226.938 394.851 227.85 398.952 229.673C403.054 231.382 406.586 233.774 409.548 236.851C412.624 239.813 415.017 243.345 416.726 247.446C418.435 251.548 419.289 255.934 419.289 260.605C419.289 265.163 418.435 269.492 416.726 273.594C415.017 277.581 412.624 281.113 409.548 284.189C406.586 287.152 403.054 289.487 398.952 291.196C394.851 293.019 390.407 293.931 385.622 293.931C381.065 293.931 376.792 293.019 372.805 291.196C368.817 289.487 365.342 287.152 362.38 284.189C359.418 281.113 357.082 277.581 355.373 273.594C353.664 269.492 352.81 265.163 352.81 260.605C352.81 255.934 353.664 251.548 355.373 247.446C357.082 243.345 359.418 239.813 362.38 236.851C365.342 233.774 368.817 231.382 372.805 229.673C376.792 227.85 381.065 226.938 385.622 226.938Z" fill="#F37B83"/>
</g>
<defs>
<filter id="filter0_d_32_5" x="0" y="0" width="487" height="406" filterUnits="userSpaceOnUse" color-interpolation-filters="sRGB">
<feFlood flood-opacity="0" result="BackgroundImageFix"/>
<feColorMatrix in="SourceAlpha" type="matrix" values="0 0 0 0 0 0 0 0 0 0 0 0 0 0 0 0 0 0 127 0" result="hardAlpha"/>
<feOffset dy="4"/>
<feGaussianBlur stdDeviation="2"/>
<feComposite in2="hardAlpha" operator="out"/>
<feColorMatrix type="matrix" values="0 0 0 0 0 0 0 0 0 0 0 0 0 0 0 0 0 0 0.25 0"/>
<feBlend mode="normal" in2="BackgroundImageFix" result="effect1_dropShadow_32_5"/>
<feBlend mode="normal" in="SourceGraphic" in2="effect1_dropShadow_32_5" result="shape"/>
</filter>
</defs>
</svg>
